<?xml version="1.0" encoding="utf-8"?>
<!-- Generator: Adobe Illustrator 27.8.1, SVG Export Plug-In . SVG Version: 6.00 Build 0)  -->
<svg version="1.1" id="Capa_1" xmlns="http://www.w3.org/2000/svg" xmlns:xlink="http://www.w3.org/1999/xlink" x="0px" y="0px"
	 viewBox="0 0 149.7 149.6" style="enable-background:new 0 0 149.7 149.6;" xml:space="preserve">
<style type="text/css">
	.st0{fill:#9283BE;}
	.st1{fill:#FFFFFF;}
</style>
<g>
	<path class="st0" d="M149.7,74.8c0,41.3-33.5,74.9-74.8,74.9S0,116.1,0,74.8S33.5,0,74.8,0S149.7,33.5,149.7,74.8"/>
	<path class="st1" d="M82.1,122.1c-2.6,2.1-6.2,3.7-10.6,4.7c-3.8,1-7.9,1.4-12.3,1.4c-9,0-16.3-3.2-21.7-9.7
		c-5.3-6.4-8-14.8-8-25.2c0-19,6.1-35.8,18.2-50.3c12.1-14.4,26.2-21.7,42.2-21.7c16.6,0,24.8,4.3,24.8,12.8c0,5-4.1,9.6-12.4,13.8
		c-1.7-10.6-7.9-15.8-18.7-15.8c-5,0-9.6,1.9-13.9,5.8c-3.9,3.5-7.4,8.3-10.4,14.5c-5.8,12-8.8,24.8-8.8,38.2
		c0,16.5,5.3,24.7,16,24.7c3.5,0,7.7-1.3,12.5-3.8c1.9-2.7,3.4-6.1,4.7-10.1c0.5-1.7,1-3.7,1.4-6l1.4-6.5c0-2.1-0.5-3.5-1.6-4
		c-2.3,0-4.5,0.5-6.5,1.4c0-4.7,1.5-7.6,4.6-8.8c1.4-0.6,3.6-1,6.6-1.2l10.3-0.5c1.7-0.1,3.1,0,4.3,0.1c1.6,0.2,2.4,0.7,2.5,1.5
		c0.1,0.9,0,1.9-0.4,3.1l-1,3.6c-1.9,8.2-3.4,14.9-4.3,20c-1.2,5.8-1.8,10-1.8,12.5c0,1,0.2,2.2,0.6,3.8l0.3,0.9
		c0.1,0.3,0.1,0.6,0.1,0.8c0.2,0.5,0.3,1,0.3,1.3c-3.2,1.9-7.8,2.9-13.7,2.9C83.7,126.4,82.1,125,82.1,122.1z"/>
</g>
</svg>
